STARTFONT 2.1
FONT -DEC-Terminal-Medium-R-Normal--14-140-75-75-C-80-ISO8859-1
SIZE 14 75 75
FONTBOUNDINGBOX 8 13 0 -2
COMMENT $Xorg: term14.bdf,v 1.3 2000/08/18 15:17:37 xorgcvs Exp $
COMMENT 
COMMENT +
COMMENT  Copyright (c) 1987, 1994 Digital Equipment Corporation
COMMENT 
COMMENT  The X Consortium, and any party obtaining a copy of these files from
COMMENT  the X Consortium, directly or indirectly, is granted, free of charge, a
COMMENT  full and unrestricted irrevocable, world-wide, paid up, royalty-free,
COMMENT  nonexclusive right and license to deal in this software and
COMMENT  documentation files (the "Software"), including without limitation the
COMMENT  rights to use, copy, modify, merge, publish, distribute, sublicense,
COMMENT  and/or sell copies of the Software, and to permit persons who receive
COMMENT  copies from any such party to do so.  This license includes without
COMMENT  limitation a license to do the foregoing actions under any patents of
COMMENT  the party supplying this software to the X Consortium.
COMMENT 
COMMENT  Digital Equipment Corporation make no representations about the
COMMENT  suitability of this software for any purpose.  It is provided "as
COMMENT  is" without express or implied warranty.
COMMENT -
STARTPROPERTIES 22
FOUNDRY "DEC"
FAMILY_NAME "Terminal"
WEIGHT_NAME "Medium"
SLANT "R"
SETWIDTH_NAME "Normal"
ADD_STYLE_NAME ""
PIXEL_SIZE 14
POINT_SIZE 140
RESOLUTION_X 75
RESOLUTION_Y 75
SPACING "C"
AVERAGE_WIDTH 80
CHARSET_REGISTRY "ISO8859"
CHARSET_ENCODING "1"
CAP_HEIGHT 8
X_HEIGHT 6
FONT_ASCENT 12
FONT_DESCENT 3
DEFAULT_CHAR 159
COPYRIGHT "Copyright (c) 1991 Digital Equipment Corporation. All Rights Reserved."
_DEC_PRODUCTINFO "DECterm Fonts V2.2, 11-Nov-1991"
FULL_NAME "Terminal"
ENDPROPERTIES
CHARS 195
STARTCHAR space
ENCODING 32
SWIDTH 570 0
DWIDTH 8 0
BBX 1 1 0 0
BITMAP
00
ENDCHAR
STARTCHAR exclam
ENCODING 33
SWIDTH 570 0
DWIDTH 8 0
BBX 1 8 3 0
BITMAP
80
80
80
80
80
00
80
80
ENDCHAR
STARTCHAR quotedbl
ENCODING 34
SWIDTH 570 0
DWIDTH 8 0
BBX 4 3 2 6
BITMAP
90
90
90
ENDCHAR
STARTCHAR numbersign
ENCODING 35
SWIDTH 570 0
DWIDTH 8 0
BBX 6 7 1 1
BITMAP
48
48
FC
48
FC
48
48
ENDCHAR
STARTCHAR dollar
ENCODING 36
SWIDTH 570 0
DWIDTH 8 0
BBX 5 8 2 0
BITMAP
20
70
A8
60
30
A8
70
20
ENDCHAR
STARTCHAR percent
ENCODING 37
SWIDTH 570 0
DWIDTH 8 0
BBX 6 8 1 0
BITMAP
48
B8
50
10
20
28
54
48
ENDCHAR
STARTCHAR ampersand
ENCODING 38
SWIDTH 570 0
DWIDTH 8 0
BBX 6 8 1 0
BITMAP
20
50
50
20
54
88
88
74
ENDCHAR
STARTCHAR quoteright
ENCODING 39
SWIDTH 570 0
DWIDTH 8 0
BBX 2 3 3 6
BITMAP
40
40
80
ENDCHAR
STARTCHAR parenleft
ENCODING 40
SWIDTH 570 0
DWIDTH 8 0
BBX 3 10 3 -1
BITMAP
20
40
40
80
80
80
80
40
40
20
ENDCHAR
STARTCHAR parenright
ENCODING 41
SWIDTH 570 0
DWIDTH 8 0
BBX 3 10 2 -1
BITMAP
80
40
40
20
20
20
20
40
40
80
ENDCHAR
STARTCHAR asterisk
ENCODING 42
SWIDTH 570 0
DWIDTH 8 0
BBX 5 6 2 2
BITMAP
20
A8
70
70
A8
20
ENDCHAR
STARTCHAR plus
ENCODING 43
SWIDTH 570 0
DWIDTH 8 0
BBX 5 5 2 1
BITMAP
20
20
F8
20
20
ENDCHAR
STARTCHAR comma
ENCODING 44
SWIDTH 570 0
DWIDTH 8 0
BBX 2 3 3 -1
BITMAP
40
40
80
ENDCHAR
STARTCHAR minus
ENCODING 45
SWIDTH 570 0
DWIDTH 8 0
BBX 6 1 1 3
BITMAP
FC
ENDCHAR
STARTCHAR period
ENCODING 46
SWIDTH 570 0
DWIDTH 8 0
BBX 1 2 3 0
BITMAP
80
80
ENDCHAR
STARTCHAR slash
ENCODING 47
SWIDTH 570 0
DWIDTH 8 0
BBX 4 10 2 -1
BITMAP
10
10
20
20
20
40
40
40
80
80
ENDCHAR
STARTCHAR zero
ENCODING 48
SWIDTH 570 0
DWIDTH 8 0
BBX 5 8 2 0
BITMAP
70
88
88
88
88
88
88
70
ENDCHAR
STARTCHAR one
ENCODING 49
SWIDTH 570 0
DWIDTH 8 0
BBX 5 8 2 0
BITMAP
20
60
A0
20
20
20
20
F8
ENDCHAR
STARTCHAR two
ENCODING 50
SWIDTH 570 0
DWIDTH 8 0
BBX 5 8 2 0
BITMAP
70
88
08
10
20
40
80
F8
ENDCHAR
STARTCHAR three
ENCODING 51
SWIDTH 570 0
DWIDTH 8 0
BBX 5 8 2 0
BITMAP
70
88
08
30
08
08
88
70
ENDCHAR
STARTCHAR four
ENCODING 52
SWIDTH 570 0
DWIDTH 8 0
BBX 5 8 2 0
BITMAP
10
30
50
50
90
F8
10
10
ENDCHAR
STARTCHAR five
ENCODING 53
SWIDTH 570 0
DWIDTH 8 0
BBX 5 8 2 0
BITMAP
F8
80
80
F0
88
08
88
70
ENDCHAR
STARTCHAR six
ENCODING 54
SWIDTH 570 0
DWIDTH 8 0
BBX 5 8 2 0
BITMAP
30
40
80
F0
88
88
88
70
ENDCHAR
STARTCHAR seven
ENCODING 55
SWIDTH 570 0
DWIDTH 8 0
BBX 5 8 2 0
BITMAP
F8
08
10
20
20
40
40
40
ENDCHAR
STARTCHAR eight
ENCODING 56
SWIDTH 570 0
DWIDTH 8 0
BBX 5 8 2 0
BITMAP
70
88
88
70
88
88
88
70
ENDCHAR
STARTCHAR nine
ENCODING 57
SWIDTH 570 0
DWIDTH 8 0
BBX 5 8 2 0
BITMAP
70
88
88
88
78
08
10
60
ENDCHAR
STARTCHAR colon
ENCODING 58
SWIDTH 570 0
DWIDTH 8 0
BBX 1 6 3 0
BITMAP
80
80
00
00
80
80
ENDCHAR
STARTCHAR semicolon
ENCODING 59
SWIDTH 570 0
DWIDTH 8 0
BBX 2 7 2 -1
BITMAP
40
40
00
00
40
40
80
ENDCHAR
STARTCHAR less
ENCODING 60
SWIDTH 570 0
DWIDTH 8 0
BBX 4 7 2 0
BITMAP
10
20
40
80
40
20
10
ENDCHAR
STARTCHAR equal
ENCODING 61
SWIDTH 570 0
DWIDTH 8 0
BBX 6 3 1 2
BITMAP
FC
00
FC
ENDCHAR
STARTCHAR greater
ENCODING 62
SWIDTH 570 0
DWIDTH 8 0
BBX 4 7 2 0
BITMAP
80
40
20
10
20
40
80
ENDCHAR
STARTCHAR question
ENCODING 63
SWIDTH 570 0
DWIDTH 8 0
BBX 5 8 1 0
BITMAP
70
88
10
20
20
00
20
20
ENDCHAR
STARTCHAR at
ENCODING 64
SWIDTH 570 0
DWIDTH 8 0
BBX 6 8 1 0
BITMAP
78
84
9C
A4
A4
9C
80
78
ENDCHAR
STARTCHAR A
ENCODING 65
SWIDTH 570 0
DWIDTH 8 0
BBX 6 8 1 0
BITMAP
30
48
84
84
FC
84
84
84
ENDCHAR
STARTCHAR B
ENCODING 66
SWIDTH 570 0
DWIDTH 8 0
BBX 6 8 1 0
BITMAP
F8
84
84
F8
84
84
84
F8
ENDCHAR
STARTCHAR C
ENCODING 67
SWIDTH 570 0
DWIDTH 8 0
BBX 6 8 1 0
BITMAP
78
84
80
80
80
80
84
78
ENDCHAR
STARTCHAR D
ENCODING 68
SWIDTH 570 0
DWIDTH 8 0
BBX 6 8 1 0
BITMAP
F8
84
84
84
84
84
84
F8
ENDCHAR
STARTCHAR E
ENCODING 69
SWIDTH 570 0
DWIDTH 8 0
BBX 5 8 2 0
BITMAP
F8
80
80
F0
80
80
80
F8
ENDCHAR
STARTCHAR F
ENCODING 70
SWIDTH 570 0
DWIDTH 8 0
BBX 5 8 2 0
BITMAP
F8
80
80
80
F0
80
80
80
ENDCHAR
STARTCHAR G
ENCODING 71
SWIDTH 570 0
DWIDTH 8 0
BBX 6 8 1 0
BITMAP
78
84
80
9C
84
84
84
78
ENDCHAR
STARTCHAR H
ENCODING 72
SWIDTH 570 0
DWIDTH 8 0
BBX 6 8 1 0
BITMAP
84
84
84
FC
84
84
84
84
ENDCHAR
STARTCHAR I
ENCODING 73
SWIDTH 570 0
DWIDTH 8 0
BBX 5 8 2 0
BITMAP
F8
20
20
20
20
20
20
F8
ENDCHAR
STARTCHAR J
ENCODING 74
SWIDTH 570 0
DWIDTH 8 0
BBX 6 8 1 0
BITMAP
3C
08
08
08
08
08
88
70
ENDCHAR
STARTCHAR K
ENCODING 75
SWIDTH 570 0
DWIDTH 8 0
BBX 5 8 2 0
BITMAP
88
90
A0
C0
C0
A0
90
88
ENDCHAR
STARTCHAR L
ENCODING 76
SWIDTH 570 0
DWIDTH 8 0
BBX 5 8 2 0
BITMAP
80
80
80
80
80
80
80
F8
ENDCHAR
STARTCHAR M
ENCODING 77
SWIDTH 570 0
DWIDTH 8 0
BBX 7 8 1 0
BITMAP
82
C6
AA
AA
92
92
82
82
ENDCHAR
STARTCHAR N
ENCODING 78
SWIDTH 570 0
DWIDTH 8 0
BBX 6 8 1 0
BITMAP
84
C4
A4
A4
94
94
8C
84
ENDCHAR
STARTCHAR O
ENCODING 79
SWIDTH 570 0
DWIDTH 8 0
BBX 6 8 1 0
BITMAP
78
84
84
84
84
84
84
78
ENDCHAR
STARTCHAR P
ENCODING 80
SWIDTH 570 0
DWIDTH 8 0
BBX 6 8 1 0
BITMAP
F8
84
84
84
F8
80
80
80
ENDCHAR
STARTCHAR Q
ENCODING 81
SWIDTH 570 0
DWIDTH 8 0
BBX 6 9 1 -1
BITMAP
78
84
84
84
84
A4
94
78
04
ENDCHAR
STARTCHAR R
ENCODING 82
SWIDTH 570 0
DWIDTH 8 0
BBX 6 8 1 0
BITMAP
F8
84
84
84
F8
90
88
84
ENDCHAR
STARTCHAR S
ENCODING 83
SWIDTH 570 0
DWIDTH 8 0
BBX 6 8 1 0
BITMAP
78
84
80
78
04
04
84
78
ENDCHAR
STARTCHAR T
ENCODING 84
SWIDTH 570 0
DWIDTH 8 0
BBX 5 8 2 0
BITMAP
F8
20
20
20
20
20
20
20
ENDCHAR
STARTCHAR U
ENCODING 85
SWIDTH 570 0
DWIDTH 8 0
BBX 6 8 1 0
BITMAP
84
84
84
84
84
84
84
78
ENDCHAR
STARTCHAR V
ENCODING 86
SWIDTH 570 0
DWIDTH 8 0
BBX 7 8 1 0
BITMAP
82
82
44
44
28
28
10
10
ENDCHAR
STARTCHAR W
ENCODING 87
SWIDTH 570 0
DWIDTH 8 0
BBX 7 8 1 0
BITMAP
82
82
82
92
92
92
92
6C
ENDCHAR
STARTCHAR X
ENCODING 88
SWIDTH 570 0
DWIDTH 8 0
BBX 7 8 1 0
BITMAP
C6
44
28
10
10
28
44
C6
ENDCHAR
STARTCHAR Y
ENCODING 89
SWIDTH 570 0
DWIDTH 8 0
BBX 7 8 1 0
BITMAP
82
82
44
28
10
10
10
10
ENDCHAR
STARTCHAR Z
ENCODING 90
SWIDTH 570 0
DWIDTH 8 0
BBX 6 8 1 0
BITMAP
FC
04
08
10
20
40
80
FC
ENDCHAR
STARTCHAR bracketleft
ENCODING 91
SWIDTH 570 0
DWIDTH 8 0
BBX 3 10 3 -1
BITMAP
E0
80
80
80
80
80
80
80
80
E0
ENDCHAR
STARTCHAR backslash
ENCODING 92
SWIDTH 570 0
DWIDTH 8 0
BBX 4 10 2 -1
BITMAP
80
80
40
40
40
20
20
20
10
10
ENDCHAR
STARTCHAR bracketright
ENCODING 93
SWIDTH 570 0
DWIDTH 8 0
BBX 3 10 2 -1
BITMAP
E0
20
20
20
20
20
20
20
20
E0
ENDCHAR
STARTCHAR asciicircum
ENCODING 94
SWIDTH 570 0
DWIDTH 8 0
BBX 5 3 2 3
BITMAP
20
50
88
ENDCHAR
STARTCHAR underscore
ENCODING 95
SWIDTH 570 0
DWIDTH 8 0
BBX 6 1 1 0
BITMAP
FC
ENDCHAR
STARTCHAR quoteleft
ENCODING 96
SWIDTH 570 0
DWIDTH 8 0
BBX 2 3 4 6
BITMAP
80
80
40
ENDCHAR
STARTCHAR a
ENCODING 97
SWIDTH 570 0
DWIDTH 8 0
BBX 7 6 1 0
BITMAP
78
04
7C
84
84
7A
ENDCHAR
STARTCHAR b
ENCODING 98
SWIDTH 570 0
DWIDTH 8 0
BBX 6 8 1 0
BITMAP
80
80
B8
C4
84
84
84
F8
ENDCHAR
STARTCHAR c
ENCODING 99
SWIDTH 570 0
DWIDTH 8 0
BBX 6 6 1 0
BITMAP
78
84
80
80
84
78
ENDCHAR
STARTCHAR d
ENCODING 100
SWIDTH 570 0
DWIDTH 8 0
BBX 6 8 1 0
BITMAP
04
04
74
8C
84
84
84
7C
ENDCHAR
STARTCHAR e
ENCODING 101
SWIDTH 570 0
DWIDTH 8 0
BBX 6 6 1 0
BITMAP
78
84
FC
80
84
78
ENDCHAR
STARTCHAR f
ENCODING 102
SWIDTH 570 0
DWIDTH 8 0
BBX 5 8 2 0
BITMAP
38
40
40
F0
40
40
40
40
ENDCHAR
STARTCHAR g
ENCODING 103
SWIDTH 570 0
DWIDTH 8 0
BBX 6 9 1 -2
BITMAP
08
70
88
88
70
80
78
84
78
ENDCHAR
STARTCHAR h
ENCODING 104
SWIDTH 570 0
DWIDTH 8 0
BBX 6 8 1 0
BITMAP
80
80
B8
C4
84
84
84
84
ENDCHAR
STARTCHAR i
ENCODING 105
SWIDTH 570 0
DWIDTH 8 0
BBX 5 9 2 0
BITMAP
20
20
00
E0
20
20
20
20
F8
ENDCHAR
STARTCHAR j
ENCODING 106
SWIDTH 570 0
DWIDTH 8 0
BBX 5 11 1 -2
BITMAP
08
08
00
38
08
08
08
08
08
88
70
ENDCHAR
STARTCHAR k
ENCODING 107
SWIDTH 570 0
DWIDTH 8 0
BBX 6 8 1 0
BITMAP
80
80
88
90
E0
90
88
84
ENDCHAR
STARTCHAR l
ENCODING 108
SWIDTH 570 0
DWIDTH 8 0
BBX 5 8 2 0
BITMAP
E0
20
20
20
20
20
20
F8
ENDCHAR
STARTCHAR m
ENCODING 109
SWIDTH 570 0
DWIDTH 8 0
BBX 7 6 1 0
BITMAP
EC
92
92
92
82
82
ENDCHAR
STARTCHAR n
ENCODING 110
SWIDTH 570 0
DWIDTH 8 0
BBX 6 6 1 0
BITMAP
B8
C4
84
84
84
84
ENDCHAR
STARTCHAR o
ENCODING 111
SWIDTH 570 0
DWIDTH 8 0
BBX 6 6 1 0
BITMAP
78
84
84
84
84
78
ENDCHAR
STARTCHAR p
ENCODING 112
SWIDTH 570 0
DWIDTH 8 0
BBX 6 8 1 -2
BITMAP
B8
C4
84
84
84
F8
80
80
ENDCHAR
STARTCHAR q
ENCODING 113
SWIDTH 570 0
DWIDTH 8 0
BBX 6 8 1 -2
BITMAP
7C
84
84
84
8C
74
04
04
ENDCHAR
STARTCHAR r
ENCODING 114
SWIDTH 570 0
DWIDTH 8 0
BBX 6 6 1 0
BITMAP
DC
64
40
40
40
40
ENDCHAR
STARTCHAR s
ENCODING 115
SWIDTH 570 0
DWIDTH 8 0
BBX 6 6 1 0
BITMAP
78
84
78
04
84
78
ENDCHAR
STARTCHAR t
ENCODING 116
SWIDTH 570 0
DWIDTH 8 0
BBX 5 8 2 0
BITMAP
40
40
F0
40
40
40
48
30
ENDCHAR
STARTCHAR u
ENCODING 117
SWIDTH 570 0
DWIDTH 8 0
BBX 6 6 1 0
BITMAP
84
84
84
84
8C
74
ENDCHAR
STARTCHAR v
ENCODING 118
SWIDTH 570 0
DWIDTH 8 0
BBX 5 6 2 0
BITMAP
88
88
50
50
20
20
ENDCHAR
STARTCHAR w
ENCODING 119
SWIDTH 570 0
DWIDTH 8 0
BBX 7 6 1 0
BITMAP
82
82
92
92
92
6C
ENDCHAR
STARTCHAR x
ENCODING 120
SWIDTH 570 0
DWIDTH 8 0
BBX 6 6 1 0
BITMAP
CC
48
30
30
48
CC
ENDCHAR
STARTCHAR y
ENCODING 121
SWIDTH 570 0
DWIDTH 8 0
BBX 7 8 1 -2
BITMAP
C6
44
44
28
18
10
90
60
ENDCHAR
STARTCHAR z
ENCODING 122
SWIDTH 570 0
DWIDTH 8 0
BBX 6 6 1 0
BITMAP
FC
08
10
20
40
FC
ENDCHAR
STARTCHAR braceleft
ENCODING 123
SWIDTH 570 0
DWIDTH 8 0
BBX 4 10 2 -1
BITMAP
30
40
40
20
C0
20
40
40
40
30
ENDCHAR
STARTCHAR bar
ENCODING 124
SWIDTH 570 0
DWIDTH 8 0
BBX 1 10 3 -1
BITMAP
80
80
80
80
80
80
80
80
80
80
ENDCHAR
STARTCHAR braceright
ENCODING 125
SWIDTH 570 0
DWIDTH 8 0
BBX 4 10 2 -1
BITMAP
C0
20
20
40
30
40
20
20
20
C0
ENDCHAR
STARTCHAR asciitilde
ENCODING 126
SWIDTH 570 0
DWIDTH 8 0
BBX 6 2 1 4
BITMAP
64
98
ENDCHAR
STARTCHAR OE
ENCODING 128
SWIDTH 570 0
DWIDTH 8 0
BBX 7 8 1 0
BITMAP
7E
90
90
9C
90
90
90
7E
ENDCHAR
STARTCHAR oe
ENCODING 129
SWIDTH 570 0
DWIDTH 8 0
BBX 7 6 1 0
BITMAP
6C
92
9E
90
92
6C
ENDCHAR
STARTCHAR Ydieresis
ENCODING 130
SWIDTH 570 0
DWIDTH 8 0
BBX 7 11 1 0
BITMAP
48
48
00
82
82
44
28
10
10
10
10
ENDCHAR
STARTCHAR Error
ENCODING 159
SWIDTH 570 0
DWIDTH 8 0
BBX 6 13 1 -2
BITMAP
78
CC
84
80
C0
60
30
10
10
00
00
10
10
ENDCHAR
STARTCHAR space
ENCODING 160
SWIDTH 570 0
DWIDTH 8 0
BBX 1 1 0 0
BITMAP
00
ENDCHAR
STARTCHAR exclamdown
ENCODING 161
SWIDTH 570 0
DWIDTH 8 0
BBX 1 9 4 -1
BITMAP
80
80
00
80
80
80
80
80
80
ENDCHAR
STARTCHAR cent
ENCODING 162
SWIDTH 570 0
DWIDTH 8 0
BBX 5 9 2 0
BITMAP
20
20
70
A8
A0
A8
70
20
20
ENDCHAR
STARTCHAR sterling
ENCODING 163
SWIDTH 570 0
DWIDTH 8 0
BBX 7 8 1 0
BITMAP
18
24
24
20
78
20
62
DC
ENDCHAR
STARTCHAR currency
ENCODING 164
SWIDTH 570 0
DWIDTH 8 0
BBX 5 7 2 1
BITMAP
88
70
88
88
88
70
88
ENDCHAR
STARTCHAR yen
ENCODING 165
SWIDTH 570 0
DWIDTH 8 0
BBX 5 8 2 0
BITMAP
88
88
50
F8
20
F8
20
20
ENDCHAR
STARTCHAR brokenbar
ENCODING 166
SWIDTH 570 0
DWIDTH 8 0
BBX 1 10 3 -1
BITMAP
80
80
80
80
00
00
80
80
80
80
ENDCHAR
STARTCHAR section
ENCODING 167
SWIDTH 570 0
DWIDTH 8 0
BBX 5 10 2 -1
BITMAP
70
88
80
70
88
88
70
08
88
70
ENDCHAR
STARTCHAR dieresis
ENCODING 168
SWIDTH 570 0
DWIDTH 8 0
BBX 4 2 2 7
BITMAP
90
90
ENDCHAR
STARTCHAR copyright
ENCODING 169
SWIDTH 570 0
DWIDTH 8 0
BBX 7 8 1 0
BITMAP
7C
82
9A
A2
A2
9A
82
7C
ENDCHAR
STARTCHAR ordfeminine
ENCODING 170
SWIDTH 570 0
DWIDTH 8 0
BBX 4 7 1 1
BITMAP
60
10
70
90
70
00
F0
ENDCHAR
STARTCHAR guillemotleft
ENCODING 171
SWIDTH 570 0
DWIDTH 8 0
BBX 6 5 1 1
BITMAP
24
48
90
48
24
ENDCHAR
STARTCHAR logicalnot
ENCODING 172
SWIDTH 570 0
DWIDTH 8 0
BBX 6 2 1 3
BITMAP
FC
04
ENDCHAR
STARTCHAR hyphen
ENCODING 173
SWIDTH 570 0
DWIDTH 8 0
BBX 4 1 2 3
BITMAP
F0
ENDCHAR
STARTCHAR registered
ENCODING 174
SWIDTH 570 0
DWIDTH 8 0
BBX 7 8 1 0
BITMAP
7C
82
B2
AA
B2
AA
82
7C
ENDCHAR
STARTCHAR macron
ENCODING 175
SWIDTH 570 0
DWIDTH 8 0
BBX 6 1 1 8
BITMAP
FC
ENDCHAR
STARTCHAR degree
ENCODING 176
SWIDTH 570 0
DWIDTH 8 0
BBX 3 3 2 6
BITMAP
40
A0
40
ENDCHAR
STARTCHAR plusminus
ENCODING 177
SWIDTH 570 0
DWIDTH 8 0
BBX 5 7 2 0
BITMAP
20
20
F8
20
20
00
F8
ENDCHAR
STARTCHAR twosuperior
ENCODING 178
SWIDTH 570 0
DWIDTH 8 0
BBX 4 6 2 2
BITMAP
60
90
20
40
80
F0
ENDCHAR
STARTCHAR threesuperior
ENCODING 179
SWIDTH 570 0
DWIDTH 8 0
BBX 4 6 2 2
BITMAP
60
90
20
10
90
60
ENDCHAR
STARTCHAR acute
ENCODING 180
SWIDTH 570 0
DWIDTH 8 0
BBX 3 3 3 6
BITMAP
20
40
80
ENDCHAR
STARTCHAR mu
ENCODING 181
SWIDTH 570 0
DWIDTH 8 0
BBX 7 6 0 0
BITMAP
12
24
24
48
48
B6
ENDCHAR
STARTCHAR paragraph
ENCODING 182
SWIDTH 570 0
DWIDTH 8 0
BBX 6 9 1 -1
BITMAP
7C
E8
E8
E8
68
28
28
28
28
ENDCHAR
STARTCHAR periodcentered
ENCODING 183
SWIDTH 570 0
DWIDTH 8 0
BBX 1 2 3 4
BITMAP
80
80
ENDCHAR
STARTCHAR cedilla
ENCODING 184
SWIDTH 570 0
DWIDTH 8 0
BBX 2 3 3 -2
BITMAP
40
40
C0
ENDCHAR
STARTCHAR onesuperior
ENCODING 185
SWIDTH 570 0
DWIDTH 8 0
BBX 3 6 2 2
BITMAP
40
C0
40
40
40
E0
ENDCHAR
STARTCHAR ordmasculine
ENCODING 186
SWIDTH 570 0
DWIDTH 8 0
BBX 4 7 1 1
BITMAP
60
90
90
90
60
00
F0
ENDCHAR
STARTCHAR guillemotright
ENCODING 187
SWIDTH 570 0
DWIDTH 8 0
BBX 6 5 1 1
BITMAP
90
48
24
48
90
ENDCHAR
STARTCHAR onequarter
ENCODING 188
SWIDTH 570 0
DWIDTH 8 0
BBX 7 10 1 -1
BITMAP
40
C0
44
48
F0
24
4C
94
3E
04
ENDCHAR
STARTCHAR onehalf
ENCODING 189
SWIDTH 570 0
DWIDTH 8 0
BBX 7 10 1 -1
BITMAP
40
C0
44
48
F0
2C
52
84
08
1E
ENDCHAR
STARTCHAR threequarters
ENCODING 190
SWIDTH 570 0
DWIDTH 8 0
BBX 7 10 1 -1
BITMAP
60
90
20
94
68
14
2C
54
BE
04
ENDCHAR
STARTCHAR questiondown
ENCODING 191
SWIDTH 570 0
DWIDTH 8 0
BBX 5 9 2 -1
BITMAP
20
20
00
20
20
40
80
88
70
ENDCHAR
STARTCHAR Agrave
ENCODING 192
SWIDTH 570 0
DWIDTH 8 0
BBX 6 11 1 0
BITMAP
20
10
00
30
48
84
84
FC
84
84
84
ENDCHAR
STARTCHAR Aacute
ENCODING 193
SWIDTH 570 0
DWIDTH 8 0
BBX 6 11 1 0
BITMAP
10
20
00
30
48
84
84
FC
84
84
84
ENDCHAR
STARTCHAR Acircumflex
ENCODING 194
SWIDTH 570 0
DWIDTH 8 0
BBX 6 11 1 0
BITMAP
30
48
00
30
48
84
84
FC
84
84
84
ENDCHAR
STARTCHAR Atilde
ENCODING 195
SWIDTH 570 0
DWIDTH 8 0
BBX 6 11 1 0
BITMAP
64
98
00
30
48
84
84
FC
84
84
84
ENDCHAR
STARTCHAR Adieresis
ENCODING 196
SWIDTH 570 0
DWIDTH 8 0
BBX 6 11 1 0
BITMAP
48
48
00
30
48
84
84
FC
84
84
84
ENDCHAR
STARTCHAR Aring
ENCODING 197
SWIDTH 570 0
DWIDTH 8 0
BBX 6 11 1 0
BITMAP
30
48
30
30
48
84
84
FC
84
84
84
ENDCHAR
STARTCHAR AE
ENCODING 198
SWIDTH 570 0
DWIDTH 8 0
BBX 7 8 1 0
BITMAP
3E
50
50
9C
F0
90
90
9E
ENDCHAR
STARTCHAR Ccedilla
ENCODING 199
SWIDTH 570 0
DWIDTH 8 0
BBX 6 10 1 -2
BITMAP
78
84
80
80
80
80
84
78
10
20
ENDCHAR
STARTCHAR Egrave
ENCODING 200
SWIDTH 570 0
DWIDTH 8 0
BBX 5 11 2 0
BITMAP
40
20
00
F8
80
80
F0
80
80
80
F8
ENDCHAR
STARTCHAR Eacute
ENCODING 201
SWIDTH 570 0
DWIDTH 8 0
BBX 5 11 2 0
BITMAP
10
20
00
F8
80
80
F0
80
80
80
F8
ENDCHAR
STARTCHAR Ecircumflex
ENCODING 202
SWIDTH 570 0
DWIDTH 8 0
BBX 5 11 2 0
BITMAP
30
48
00
F8
80
80
F0
80
80
80
F8
ENDCHAR
STARTCHAR Edieresis
ENCODING 203
SWIDTH 570 0
DWIDTH 8 0
BBX 5 11 2 0
BITMAP
50
50
00
F8
80
80
F0
80
80
80
F8
ENDCHAR
STARTCHAR Igrave
ENCODING 204
SWIDTH 570 0
DWIDTH 8 0
BBX 5 11 2 0
BITMAP
40
20
00
F8
20
20
20
20
20
20
F8
ENDCHAR
STARTCHAR Iacute
ENCODING 205
SWIDTH 570 0
DWIDTH 8 0
BBX 5 11 2 0
BITMAP
10
20
00
F8
20
20
20
20
20
20
F8
ENDCHAR
STARTCHAR Icircumflex
ENCODING 206
SWIDTH 570 0
DWIDTH 8 0
BBX 5 11 2 0
BITMAP
20
50
00
F8
20
20
20
20
20
20
F8
ENDCHAR
STARTCHAR Idieresis
ENCODING 207
SWIDTH 570 0
DWIDTH 8 0
BBX 5 11 2 0
BITMAP
50
50
00
F8
20
20
20
20
20
20
F8
ENDCHAR
STARTCHAR Eth
ENCODING 208
SWIDTH 570 0
DWIDTH 8 0
BBX 7 8 0 0
BITMAP
7C
42
42
F2
42
42
42
7C
ENDCHAR
STARTCHAR Ntilde
ENCODING 209
SWIDTH 570 0
DWIDTH 8 0
BBX 6 11 1 0
BITMAP
64
98
00
84
C4
A4
A4
94
94
8C
84
ENDCHAR
STARTCHAR Ograve
ENCODING 210
SWIDTH 570 0
DWIDTH 8 0
BBX 6 11 1 0
BITMAP
20
10
00
78
84
84
84
84
84
84
78
ENDCHAR
STARTCHAR Oacute
ENCODING 211
SWIDTH 570 0
DWIDTH 8 0
BBX 6 11 1 0
BITMAP
10
20
00
78
84
84
84
84
84
84
78
ENDCHAR
STARTCHAR Ocircumflex
ENCODING 212
SWIDTH 570 0
DWIDTH 8 0
BBX 6 11 1 0
BITMAP
30
48
00
78
84
84
84
84
84
84
78
ENDCHAR
STARTCHAR Otilde
ENCODING 213
SWIDTH 570 0
DWIDTH 8 0
BBX 6 11 1 0
BITMAP
64
98
00
78
84
84
84
84
84
84
78
ENDCHAR
STARTCHAR Odieresis
ENCODING 214
SWIDTH 570 0
DWIDTH 8 0
BBX 6 11 1 0
BITMAP
48
48
00
78
84
84
84
84
84
84
78
ENDCHAR
STARTCHAR multiply
ENCODING 215
SWIDTH 570 0
DWIDTH 8 0
BBX 5 5 2 1
BITMAP
88
50
20
50
88
ENDCHAR
STARTCHAR Oslash
ENCODING 216
SWIDTH 570 0
DWIDTH 8 0
BBX 8 9 0 -1
BITMAP
3D
42
46
4A
4A
52
62
7C
80
ENDCHAR
STARTCHAR Ugrave
ENCODING 217
SWIDTH 570 0
DWIDTH 8 0
BBX 6 11 1 0
BITMAP
20
10
00
84
84
84
84
84
84
84
78
ENDCHAR
STARTCHAR Uacute
ENCODING 218
SWIDTH 570 0
DWIDTH 8 0
BBX 6 11 1 0
BITMAP
10
20
00
84
84
84
84
84
84
84
78
ENDCHAR
STARTCHAR Ucircumflex
ENCODING 219
SWIDTH 570 0
DWIDTH 8 0
BBX 6 11 1 0
BITMAP
30
48
00
84
84
84
84
84
84
84
78
ENDCHAR
STARTCHAR Udieresis
ENCODING 220
SWIDTH 570 0
DWIDTH 8 0
BBX 6 11 1 0
BITMAP
48
48
00
84
84
84
84
84
84
84
78
ENDCHAR
STARTCHAR Yacute
ENCODING 221
SWIDTH 570 0
DWIDTH 8 0
BBX 7 11 1 0
BITMAP
18
20
00
82
82
44
28
10
10
10
10
ENDCHAR
STARTCHAR Thorn
ENCODING 222
SWIDTH 570 0
DWIDTH 8 0
BBX 6 8 1 0
BITMAP
E0
40
78
44
44
78
40
E0
ENDCHAR
STARTCHAR germandbls
ENCODING 223
SWIDTH 570 0
DWIDTH 8 0
BBX 6 8 1 0
BITMAP
38
44
44
C8
44
44
44
D8
ENDCHAR
STARTCHAR agrave
ENCODING 224
SWIDTH 570 0
DWIDTH 8 0
BBX 7 9 1 0
BITMAP
20
10
00
78
04
7C
84
84
7A
ENDCHAR
STARTCHAR aacute
ENCODING 225
SWIDTH 570 0
DWIDTH 8 0
BBX 7 9 1 0
BITMAP
08
10
00
78
04
7C
84
84
7A
ENDCHAR
STARTCHAR acircumflex
ENCODING 226
SWIDTH 570 0
DWIDTH 8 0
BBX 7 9 1 0
BITMAP
30
48
00
78
04
7C
84
84
7A
ENDCHAR
STARTCHAR atilde
ENCODING 227
SWIDTH 570 0
DWIDTH 8 0
BBX 7 9 1 0
BITMAP
34
58
00
78
04
7C
84
84
7A
ENDCHAR
STARTCHAR adieresis
ENCODING 228
SWIDTH 570 0
DWIDTH 8 0
BBX 7 9 1 0
BITMAP
24
24
00
78
04
7C
84
84
7A
ENDCHAR
STARTCHAR aring
ENCODING 229
SWIDTH 570 0
DWIDTH 8 0
BBX 7 10 1 0
BITMAP
38
44
38
00
78
04
7C
84
84
7A
ENDCHAR
STARTCHAR ae
ENCODING 230
SWIDTH 570 0
DWIDTH 8 0
BBX 7 6 1 0
BITMAP
EC
12
7E
90
92
6C
ENDCHAR
STARTCHAR ccedilla
ENCODING 231
SWIDTH 570 0
DWIDTH 8 0
BBX 6 8 1 -2
BITMAP
78
84
80
80
84
78
20
40
ENDCHAR
STARTCHAR egrave
ENCODING 232
SWIDTH 570 0
DWIDTH 8 0
BBX 6 9 1 0
BITMAP
20
10
00
78
84
FC
80
84
78
ENDCHAR
STARTCHAR eacute
ENCODING 233
SWIDTH 570 0
DWIDTH 8 0
BBX 6 9 1 0
BITMAP
08
10
00
78
84
FC
80
84
78
ENDCHAR
STARTCHAR ecircumflex
ENCODING 234
SWIDTH 570 0
DWIDTH 8 0
BBX 6 9 1 0
BITMAP
30
48
00
78
84
FC
80
84
78
ENDCHAR
STARTCHAR edieresis
ENCODING 235
SWIDTH 570 0
DWIDTH 8 0
BBX 6 9 1 0
BITMAP
48
48
00
78
84
FC
80
84
78
ENDCHAR
STARTCHAR igrave
ENCODING 236
SWIDTH 570 0
DWIDTH 8 0
BBX 5 9 2 0
BITMAP
40
20
00
60
20
20
20
20
F8
ENDCHAR
STARTCHAR iacute
ENCODING 237
SWIDTH 570 0
DWIDTH 8 0
BBX 5 9 2 0
BITMAP
20
40
00
60
20
20
20
20
F8
ENDCHAR
STARTCHAR icircumflex
ENCODING 238
SWIDTH 570 0
DWIDTH 8 0
BBX 5 9 2 0
BITMAP
60
90
00
60
20
20
20
20
F8
ENDCHAR
STARTCHAR idieresis
ENCODING 239
SWIDTH 570 0
DWIDTH 8 0
BBX 5 9 2 0
BITMAP
50
50
00
60
20
20
20
20
F8
ENDCHAR
STARTCHAR eth
ENCODING 240
SWIDTH 570 0
DWIDTH 8 0
BBX 6 9 1 0
BITMAP
90
60
60
90
78
84
84
84
78
ENDCHAR
STARTCHAR ntilde
ENCODING 241
SWIDTH 570 0
DWIDTH 8 0
BBX 6 9 1 0
BITMAP
34
58
00
B8
C4
84
84
84
84
ENDCHAR
STARTCHAR ograve
ENCODING 242
SWIDTH 570 0
DWIDTH 8 0
BBX 6 9 1 0
BITMAP
20
10
00
78
84
84
84
84
78
ENDCHAR
STARTCHAR oacute
ENCODING 243
SWIDTH 570 0
DWIDTH 8 0
BBX 6 9 1 0
BITMAP
10
20
00
78
84
84
84
84
78
ENDCHAR
STARTCHAR ocircumflex
ENCODING 244
SWIDTH 570 0
DWIDTH 8 0
BBX 6 9 1 0
BITMAP
30
48
00
78
84
84
84
84
78
ENDCHAR
STARTCHAR otilde
ENCODING 245
SWIDTH 570 0
DWIDTH 8 0
BBX 6 9 1 0
BITMAP
34
58
00
78
84
84
84
84
78
ENDCHAR
STARTCHAR odieresis
ENCODING 246
SWIDTH 570 0
DWIDTH 8 0
BBX 6 9 1 0
BITMAP
48
48
00
78
84
84
84
84
78
ENDCHAR
STARTCHAR divide
ENCODING 247
SWIDTH 570 0
DWIDTH 8 0
BBX 5 7 2 0
BITMAP
20
20
00
F8
00
20
20
ENDCHAR
STARTCHAR oslash
ENCODING 248
SWIDTH 570 0
DWIDTH 8 0
BBX 8 8 0 -1
BITMAP
01
3E
46
4A
52
62
7C
80
ENDCHAR
STARTCHAR ugrave
ENCODING 249
SWIDTH 570 0
DWIDTH 8 0
BBX 6 9 1 0
BITMAP
20
10
00
84
84
84
84
8C
74
ENDCHAR
STARTCHAR uacute
ENCODING 250
SWIDTH 570 0
DWIDTH 8 0
BBX 6 9 1 0
BITMAP
10
20
00
84
84
84
84
8C
74
ENDCHAR
STARTCHAR ucircumflex
ENCODING 251
SWIDTH 570 0
DWIDTH 8 0
BBX 6 9 1 0
BITMAP
30
48
00
84
84
84
84
8C
74
ENDCHAR
STARTCHAR udieresis
ENCODING 252
SWIDTH 570 0
DWIDTH 8 0
BBX 6 9 1 0
BITMAP
48
48
00
84
84
84
84
8C
74
ENDCHAR
STARTCHAR yacute
ENCODING 253
SWIDTH 570 0
DWIDTH 8 0
BBX 7 11 1 -2
BITMAP
08
10
00
C6
44
44
28
18
10
90
60
ENDCHAR
STARTCHAR thorn
ENCODING 254
SWIDTH 570 0
DWIDTH 8 0
BBX 6 10 1 -2
BITMAP
E0
40
78
44
44
44
44
78
40
E0
ENDCHAR
STARTCHAR ydieresis
ENCODING 255
SWIDTH 570 0
DWIDTH 8 0
BBX 7 11 1 -2
BITMAP
28
28
00
C6
44
44
28
28
10
90
60
ENDCHAR
ENDFONT
